{"title":"Relax Hes My Step Dad 3 WEB-DL 1080p WMV-MoWSeRS","uid":7704483,"size":12285127538,"categoryP":"porn","categoryS":"hd___movies","magnet":"?xt=urn:btih:5e5ad510e0b4dc70c7cd043aa658880e856f08ea&amp;dn=Relax+Hes+My+Step+Dad+3+WEB-DL+1080p+WMV-MoWSeRS&amp;tr=udp%3A%2F%2Ftracker.openbittorrent.com%3A80&amp;tr=udp%3A%2F%2Fopen.demonii.com%3A1337&amp;tr=udp%3A%2F%2Ftracker.coppersurfer.tk%3A6969&amp;tr=udp%3A%2F%2Fexodus.desync.com%3A6969","seeders":0,"leechers":3,"uploader":"R0thschild","files":-1,"time":1349646138,"description":"Gallery: \n\nScene #1 &lt;a href=&quot;\nhttp://imagedomino.com/?g=372860&quot; rel=&quot;nofollow&quot; target=&quot;_NEW&quot;&gt;\nhttp://imagedomino.com/?g=372860&lt;/a&gt;\n\nScene #2 &lt;a href=&quot;\nhttp://imagedomino.com/?g=136354&quot; rel=&quot;nofollow&quot; target=&quot;_NEW&quot;&gt;\nhttp://imagedomino.com/?g=136354&lt;/a&gt;\n\nScene #3 &lt;a href=&quot;\nhttp://imagedomino.com/?g=541418&quot; rel=&quot;nofollow&quot; target=&quot;_NEW&quot;&gt;\nhttp://imagedomino.com/?g=541418&lt;/a&gt;\n\nScene #4 &lt;a href=&quot;\nhttp://imagedomino.com/?g=767266&quot; rel=&quot;nofollow&quot; target=&quot;_NEW&quot;&gt;\nhttp://imagedomino.com/?g=767266&lt;/a&gt;\n\nSERIE :    Relax He's My Step Dad\n\nSTUDIO :   Combat Zone\n\nCATEGORIES :     Asian, Hardcore, Natural Tits\n\nPORNSTAR :      Adriana Luna, Anna Skye, Manuel Ferrara, Melanie Masters, Rochelle Ryder\n\nDESCRIPTION :     Sexy young step daughters willing to let step dad do to them what their mothers won't!\n\nFormat : Windows Media\nFile size : 2.89 GiB\nDuration : 26mn 2s\nOverall bit rate : 15.9 Mbps\nMaximum Overall bit rate : 10.2 Mbps\nEncoded date : UTC 1970-01-01 00:00:00.000\nmajor_brand : isom\nminor_version : 512\ncompatible_brands : isomiso2avc1mp41\ncreation_time : 1970-01-01 00:00:00\nWM/EncodingSettings : Lavf52.93.0\n\nVideo\nID : 1\nFormat : WMV2\nCodec ID : WMV2\nCodec ID/Info : Windows Media Video 8\nDescription of the codec : wmv2\nDuration : 26mn 2s\nBit rate : 15.1 Mbps\nWidth : 1 920 pixels\nHeight : 1 080 pixels\nDisplay aspect ratio : 16:9\nFrame rate : 29.970 fps\nBit depth : 8 bits\nBits/(Pixel*Frame) : 0.242\nStream size : 2.74 GiB (95%)\n\nAudio\nID : 2\nFormat : WMA\nFormat version : Version 2\nCodec ID : 161\nCodec ID/Info : Windows Media Audio\nDescription of the codec : Windows Media Audio V8\nDuration : 26mn 2s\nBit rate : 192 Kbps\nChannel(s) : 2 channels\nSampling rate : 44.1 KHz\nBit depth : 16 bits\nStream size : 35.8 MiB (1%)\n","torrent":{"xt":"urn:btih:5e5ad510e0b4dc70c7cd043aa658880e856f08ea","amp;dn":"Relax+Hes+My+Step+Dad+3+WEB-DL+1080p+WMV-MoWSeRS","amp;tr":["udp%3A%2F%2Ftracker.openbittorrent.com%3A80","udp%3A%2F%2Fopen.demonii.com%3A1337","udp%3A%2F%2Ftracker.coppersurfer.tk%3A6969","udp%3A%2F%2Fexodus.desync.com%3A6969"],"infoHash":"5e5ad510e0b4dc70c7cd043aa658880e856f08ea","infoHashBuffer":{"type":"Buffer","data":[94,90,213,16,224,180,220,112,199,205,4,58,166,88,136,14,133,111,8,234]},"announce":[],"urlList":[]}}